<svg xmlns="http://www.w3.org/2000/svg" viewBox="0 0 1100 900" width="1100" height="900">
<defs>
  <style>
    text { font-family: 'Courier New', monospace; }
    .title  { font-size:17px; font-weight:bold; fill:#e8940a; }
    .head   { font-size:12px; font-weight:bold; fill:#06b6d4; }
    .lbl    { font-size:11px; fill:#e2e8f0; }
    .val    { font-size:10px; font-weight:bold; fill:#e8940a; }
    .pin    { font-size:10px; fill:#06b6d4; }
    .note   { font-size:9px;  fill:#64748b; }
    .warn   { font-size:9px;  fill:#f59e0b; }
    .dim    { font-size:9px;  fill:#475569; }
  </style>
  <marker id="arr" markerWidth="6" markerHeight="6" refX="3" refY="3" orient="auto">
    <path d="M0,0 L6,3 L0,6 Z" fill="#94a3b8"/>
  </marker>
</defs>

<!-- ── BACKGROUND ───────────────────────────────────────────── -->
<rect width="1100" height="900" fill="#080c10"/>
<rect x="10" y="10" width="1080" height="880" fill="#0d1318" rx="6" stroke="#1e2832" stroke-width="1"/>

<!-- ── TITLE ────────────────────────────────────────────────── -->
<text x="550" y="36" text-anchor="middle" class="title">SV-Esperanza — ESP32 New Circuit Additions</text>
<text x="550" y="52" text-anchor="middle" class="dim">Wire to protoboard alongside ESP32 · All voltages 3.3V logic unless noted</text>

<!-- ══════════════════════════════════════════════════════════ -->
<!-- SCHEMATIC ROW (3 circuits) y=65–330                       -->
<!-- ══════════════════════════════════════════════════════════ -->

<!-- ── BOX 1: 1-Wire pull-up ─────────────── x=25–365 ─────── -->
<rect x="25" y="65" width="340" height="265" fill="#0d1318" stroke="#1e3a4a" stroke-width="1" rx="4"/>
<text x="195" y="83" text-anchor="middle" class="head">① 1-Wire Pull-up  (DS18B20 temps)</text>

<!-- 3.3V -->
<text x="140" y="103" text-anchor="middle" class="val" fill="#ef4444">3.3V</text>
<line x1="140" y1="105" x2="140" y2="120" stroke="#ef4444" stroke-width="2"/>
<!-- R 4.7kΩ body -->
<line x1="140" y1="120" x2="140" y2="136" stroke="#ef4444" stroke-width="2"/>
<rect x="122" y="136" width="36" height="52" fill="#1a2535" stroke="#e8940a" stroke-width="1.5" rx="3"/>
<!-- color bands: Yellow Violet Red Gold -->
<line x1="122" y1="147" x2="158" y2="147" stroke="#eab308" stroke-width="3"/>
<line x1="122" y1="155" x2="158" y2="155" stroke="#7c3aed" stroke-width="3"/>
<line x1="122" y1="163" x2="158" y2="163" stroke="#ef4444" stroke-width="3"/>
<line x1="122" y1="171" x2="158" y2="171" stroke="#d4a017" stroke-width="2"/>
<text x="140" y="196" text-anchor="middle" class="val">4.7 kΩ</text>
<text x="140" y="207" text-anchor="middle" class="note">YEL·VIO·RED·GLD</text>
<!-- wire to node -->
<line x1="140" y1="188" x2="140" y2="225" stroke="#e8940a" stroke-width="2"/>
<!-- node -->
<circle cx="140" cy="225" r="4" fill="#e8940a"/>
<!-- right: GPIO25 -->
<line x1="140" y1="225" x2="240" y2="225" stroke="#06b6d4" stroke-width="2"/>
<text x="245" y="229" class="pin">→ GPIO25</text>
<!-- down: DS18B20 data terminal -->
<line x1="140" y1="225" x2="140" y2="268" stroke="#22c55e" stroke-width="2"/>
<rect x="95" y="268" width="90" height="20" fill="#0d1318" stroke="#22c55e" stroke-width="1" rx="3"/>
<text x="140" y="281" text-anchor="middle" class="pin" fill="#22c55e">DS18B20 DATA</text>
<!-- note on DS18B20 -->
<text x="55" y="302" class="note">Sensor VCC → 3.3V  GND → GND  (3 wires total per sensor)</text>
<text x="55" y="313" class="note">Multiple sensors share same 3 wires — 1-Wire is a bus</text>
<text x="55" y="324" class="warn">⚠ pull-up REQUIRED — 4.7kΩ between DATA and 3.3V</text>

<!-- ── BOX 2: Fuel Sender ─────────────────── x=385–725 ────── -->
<rect x="385" y="65" width="340" height="265" fill="#0d1318" stroke="#1e3a4a" stroke-width="1" rx="4"/>
<text x="555" y="83" text-anchor="middle" class="head">② Fuel Sender  (resistive float, 1984)</text>

<!-- 3.3V -->
<text x="500" y="103" text-anchor="middle" class="val" fill="#ef4444">3.3V</text>
<line x1="500" y1="105" x2="500" y2="120" stroke="#ef4444" stroke-width="2"/>
<!-- R 100Ω sense body -->
<line x1="500" y1="120" x2="500" y2="136" stroke="#ef4444" stroke-width="2"/>
<rect x="482" y="136" width="36" height="52" fill="#1a2535" stroke="#e8940a" stroke-width="1.5" rx="3"/>
<!-- color bands: Brown Black Brown Gold -->
<line x1="482" y1="147" x2="518" y2="147" stroke="#92400e" stroke-width="3"/>
<line x1="482" y1="155" x2="518" y2="155" stroke="#1e293b" stroke-width="3"/>
<line x1="482" y1="163" x2="518" y2="163" stroke="#92400e" stroke-width="3"/>
<line x1="482" y1="171" x2="518" y2="171" stroke="#d4a017" stroke-width="2"/>
<text x="500" y="196" text-anchor="middle" class="val">100 Ω</text>
<text x="500" y="207" text-anchor="middle" class="note">BRN·BLK·BRN·GLD</text>
<!-- wire to node -->
<line x1="500" y1="188" x2="500" y2="225" stroke="#e8940a" stroke-width="2"/>
<!-- node -->
<circle cx="500" cy="225" r="4" fill="#e8940a"/>
<!-- right: GPIO39 -->
<line x1="500" y1="225" x2="600" y2="225" stroke="#06b6d4" stroke-width="2"/>
<text x="605" y="229" class="pin">→ GPIO39</text>
<!-- down: tank sender (variable R) -->
<line x1="500" y1="225" x2="500" y2="243" stroke="#94a3b8" stroke-width="2"/>
<rect x="482" y="243" width="36" height="28" fill="#0d1318" stroke="#94a3b8" stroke-width="1.5" rx="3"/>
<!-- arrow through (variable symbol) -->
<line x1="478" y1="264" x2="522" y2="246" stroke="#94a3b8" stroke-width="1.2"/>
<polygon points="521,242 524,249 517,249" fill="#94a3b8"/>
<text x="530" y="255" class="lbl" fill="#94a3b8">TANK</text>
<text x="530" y="266" class="lbl" fill="#94a3b8">SENDER</text>
<!-- GND below sender -->
<line x1="500" y1="271" x2="500" y2="284" stroke="#94a3b8" stroke-width="2"/>
<line x1="485" y1="284" x2="515" y2="284" stroke="#94a3b8" stroke-width="2"/>
<line x1="490" y1="289" x2="510" y2="289" stroke="#94a3b8" stroke-width="1.5"/>
<line x1="495" y1="294" x2="505" y2="294" stroke="#94a3b8" stroke-width="1"/>
<text x="500" y="308" text-anchor="middle" class="note">boat GND</text>
<!-- calibration note -->
<text x="395" y="302" class="note">Full tank (33 Ω) → 0.82 V   Half (135 Ω) → 1.90 V   Empty (240 Ω) → 2.33 V</text>
<text x="395" y="313" class="warn">⚠ calibrate with ESPHome calibrate_linear at known fill levels</text>
<text x="395" y="324" class="note">US marine standard (Teleflex/Faria) — verify sender direction on first test</text>

<!-- ── BOX 3: Starter Battery Voltage Divider  x=745–1075 ─── -->
<rect x="745" y="65" width="340" height="265" fill="#0d1318" stroke="#1e3a4a" stroke-width="1" rx="4"/>
<text x="915" y="83" text-anchor="middle" class="head">③ Starter Battery Monitor</text>

<!-- BAT+ terminal -->
<rect x="878" y="92" width="74" height="18" fill="#0d1318" stroke="#ef4444" stroke-width="1" rx="3"/>
<text x="915" y="104" text-anchor="middle" class="val" fill="#ef4444">BAT +</text>
<text x="790" y="104" text-anchor="start" class="note">(starter batt+</text>
<text x="790" y="114" text-anchor="start" class="note"> via 1A fuse)</text>
<line x1="915" y1="110" x2="915" y2="126" stroke="#ef4444" stroke-width="2"/>

<!-- R1 100kΩ body -->
<rect x="897" y="126" width="36" height="52" fill="#1a2535" stroke="#e8940a" stroke-width="1.5" rx="3"/>
<!-- color bands: Brown Black Yellow Gold -->
<line x1="897" y1="137" x2="933" y2="137" stroke="#92400e" stroke-width="3"/>
<line x1="897" y1="145" x2="933" y2="145" stroke="#1e293b" stroke-width="3"/>
<line x1="897" y1="153" x2="933" y2="153" stroke="#eab308" stroke-width="3"/>
<line x1="897" y1="161" x2="933" y2="161" stroke="#d4a017" stroke-width="2"/>
<text x="915" y="186" text-anchor="middle" class="val">100 kΩ  R1</text>
<text x="915" y="197" text-anchor="middle" class="note">BRN·BLK·YEL·GLD</text>
<!-- wire R1 bottom to node -->
<line x1="915" y1="178" x2="915" y2="218" stroke="#e8940a" stroke-width="2"/>
<!-- node -->
<circle cx="915" cy="218" r="4" fill="#e8940a"/>
<!-- right: GPIO35 -->
<line x1="915" y1="218" x2="1010" y2="218" stroke="#06b6d4" stroke-width="2"/>
<text x="1015" y="222" class="pin">→ GPIO35</text>

<!-- R2 27kΩ (down from node) -->
<line x1="915" y1="218" x2="915" y2="232" stroke="#e8940a" stroke-width="2"/>
<rect x="897" y="232" width="36" height="36" fill="#1a2535" stroke="#e8940a" stroke-width="1.5" rx="3"/>
<!-- color bands: Red Violet Orange Gold -->
<line x1="897" y1="241" x2="933" y2="241" stroke="#ef4444" stroke-width="3"/>
<line x1="897" y1="249" x2="933" y2="249" stroke="#7c3aed" stroke-width="3"/>
<line x1="897" y1="257" x2="933" y2="257" stroke="#f97316" stroke-width="3"/>
<text x="915" y="277" text-anchor="middle" class="val">27 kΩ  R2</text>
<text x="915" y="288" text-anchor="middle" class="note">RED·VIO·ORG·GLD</text>

<!-- C 100nF (parallel with R2, to the left) -->
<line x1="872" y1="218" x2="872" y2="232" stroke="#06b6d4" stroke-width="1.5"/>
<line x1="864" y1="239" x2="880" y2="239" stroke="#06b6d4" stroke-width="3"/>
<line x1="864" y1="245" x2="880" y2="245" stroke="#06b6d4" stroke-width="3"/>
<line x1="872" y1="245" x2="872" y2="268" stroke="#06b6d4" stroke-width="1.5"/>
<text x="750" y="240" text-anchor="start" class="val" fill="#06b6d4">100nF</text>
<text x="750" y="251" text-anchor="start" class="note">ceramic</text>
<text x="750" y="262" text-anchor="start" class="note">marked "104"</text>
<!-- dashed tie from C top to node horizontal wire -->
<line x1="872" y1="218" x2="915" y2="218" stroke="#06b6d4" stroke-width="1" stroke-dasharray="3,2"/>
<!-- dashed tie from C bottom to R2 bottom -->
<line x1="872" y1="268" x2="915" y2="268" stroke="#94a3b8" stroke-width="1" stroke-dasharray="3,2"/>

<!-- GND symbol below R2 + C -->
<line x1="915" y1="268" x2="915" y2="280" stroke="#94a3b8" stroke-width="2"/>
<line x1="900" y1="280" x2="930" y2="280" stroke="#94a3b8" stroke-width="2"/>
<line x1="905" y1="285" x2="925" y2="285" stroke="#94a3b8" stroke-width="1.5"/>
<line x1="910" y1="290" x2="920" y2="290" stroke="#94a3b8" stroke-width="1"/>
<text x="915" y="308" text-anchor="middle" class="note">board GND</text>
<!-- voltage scale -->
<text x="755" y="302" class="note">12.0 V → 2.55 V    14.4 V → 3.06 V    max 15 V → 3.19 V</text>
<text x="755" y="313" class="warn">⚠ use 1A fuse inline on BAT+ wire to this circuit</text>
<text x="755" y="324" class="note">R2 + C in parallel: solder cap leads across R2 pads</text>

<!-- ══════════════════════════════════════════════════════════ -->
<!-- PROTOBOARD LAYOUT  y=345–680                              -->
<!-- ══════════════════════════════════════════════════════════ -->
<rect x="25" y="345" width="1060" height="340" fill="#0d1318" stroke="#1e3a4a" stroke-width="1" rx="4"/>
<text x="555" y="365" text-anchor="middle" class="head">Protoboard Placement  (representative layout)</text>

<!-- Grid parameters: origin x=45, y=380  step=20px  cols=50  rows=15 -->

<!-- Power rails (left edge) -->
<rect x="38" y="378" width="12" height="282" fill="#1a0505" stroke="#7f1d1d" stroke-width="1" rx="2"/>
<text x="44" y="376" text-anchor="middle" class="dim" fill="#ef4444">+</text>
<rect x="54" y="378" width="12" height="282" fill="#0a0a0a" stroke="#1e293b" stroke-width="1" rx="2"/>
<text x="60" y="376" text-anchor="middle" class="dim" fill="#94a3b8">−</text>

<!-- Draw protoboard holes (cols 1-48, rows 1-14) -->
<!-- Main tie-point grid starts at x=72, y=385, step=20 -->
<g fill="#1e2832" stroke="#0f172a" stroke-width="0.5">
<!-- Row 1 -->
<circle cx="72"  cy="388" r="3"/><circle cx="92"  cy="388" r="3"/><circle cx="112" cy="388" r="3"/><circle cx="132" cy="388" r="3"/><circle cx="152" cy="388" r="3"/>
<circle cx="172" cy="388" r="3"/><circle cx="192" cy="388" r="3"/><circle cx="212" cy="388" r="3"/><circle cx="232" cy="388" r="3"/><circle cx="252" cy="388" r="3"/>
<circle cx="272" cy="388" r="3"/><circle cx="292" cy="388" r="3"/><circle cx="312" cy="388" r="3"/><circle cx="332" cy="388" r="3"/><circle cx="352" cy="388" r="3"/>
<circle cx="372" cy="388" r="3"/><circle cx="392" cy="388" r="3"/><circle cx="412" cy="388" r="3"/><circle cx="432" cy="388" r="3"/><circle cx="452" cy="388" r="3"/>
<circle cx="472" cy="388" r="3"/><circle cx="492" cy="388" r="3"/><circle cx="512" cy="388" r="3"/><circle cx="532" cy="388" r="3"/><circle cx="552" cy="388" r="3"/>
<circle cx="572" cy="388" r="3"/><circle cx="592" cy="388" r="3"/><circle cx="612" cy="388" r="3"/><circle cx="632" cy="388" r="3"/><circle cx="652" cy="388" r="3"/>
<circle cx="672" cy="388" r="3"/><circle cx="692" cy="388" r="3"/><circle cx="712" cy="388" r="3"/><circle cx="732" cy="388" r="3"/><circle cx="752" cy="388" r="3"/>
<circle cx="772" cy="388" r="3"/><circle cx="792" cy="388" r="3"/><circle cx="812" cy="388" r="3"/><circle cx="832" cy="388" r="3"/><circle cx="852" cy="388" r="3"/>
<circle cx="872" cy="388" r="3"/><circle cx="892" cy="388" r="3"/><circle cx="912" cy="388" r="3"/><circle cx="932" cy="388" r="3"/><circle cx="952" cy="388" r="3"/>
<circle cx="972" cy="388" r="3"/><circle cx="992" cy="388" r="3"/><circle cx="1012" cy="388" r="3"/><circle cx="1032" cy="388" r="3"/><circle cx="1052" cy="388" r="3"/>
<!-- Row 2 -->
<circle cx="72"  cy="408" r="3"/><circle cx="92"  cy="408" r="3"/><circle cx="112" cy="408" r="3"/><circle cx="132" cy="408" r="3"/><circle cx="152" cy="408" r="3"/>
<circle cx="172" cy="408" r="3"/><circle cx="192" cy="408" r="3"/><circle cx="212" cy="408" r="3"/><circle cx="232" cy="408" r="3"/><circle cx="252" cy="408" r="3"/>
<circle cx="272" cy="408" r="3"/><circle cx="292" cy="408" r="3"/><circle cx="312" cy="408" r="3"/><circle cx="332" cy="408" r="3"/><circle cx="352" cy="408" r="3"/>
<circle cx="372" cy="408" r="3"/><circle cx="392" cy="408" r="3"/><circle cx="412" cy="408" r="3"/><circle cx="432" cy="408" r="3"/><circle cx="452" cy="408" r="3"/>
<circle cx="472" cy="408" r="3"/><circle cx="492" cy="408" r="3"/><circle cx="512" cy="408" r="3"/><circle cx="532" cy="408" r="3"/><circle cx="552" cy="408" r="3"/>
<circle cx="572" cy="408" r="3"/><circle cx="592" cy="408" r="3"/><circle cx="612" cy="408" r="3"/><circle cx="632" cy="408" r="3"/><circle cx="652" cy="408" r="3"/>
<circle cx="672" cy="408" r="3"/><circle cx="692" cy="408" r="3"/><circle cx="712" cy="408" r="3"/><circle cx="732" cy="408" r="3"/><circle cx="752" cy="408" r="3"/>
<circle cx="772" cy="408" r="3"/><circle cx="792" cy="408" r="3"/><circle cx="812" cy="408" r="3"/><circle cx="832" cy="408" r="3"/><circle cx="852" cy="408" r="3"/>
<circle cx="872" cy="408" r="3"/><circle cx="892" cy="408" r="3"/><circle cx="912" cy="408" r="3"/><circle cx="932" cy="408" r="3"/><circle cx="952" cy="408" r="3"/>
<circle cx="972" cy="408" r="3"/><circle cx="992" cy="408" r="3"/><circle cx="1012" cy="408" r="3"/><circle cx="1032" cy="408" r="3"/><circle cx="1052" cy="408" r="3"/>
<!-- Rows 3-14 (abbreviated for brevity, same pattern) -->
<circle cx="72"  cy="428" r="3"/><circle cx="92"  cy="428" r="3"/><circle cx="112" cy="428" r="3"/><circle cx="132" cy="428" r="3"/><circle cx="152" cy="428" r="3"/><circle cx="172" cy="428" r="3"/><circle cx="192" cy="428" r="3"/><circle cx="212" cy="428" r="3"/><circle cx="232" cy="428" r="3"/><circle cx="252" cy="428" r="3"/><circle cx="272" cy="428" r="3"/><circle cx="292" cy="428" r="3"/><circle cx="312" cy="428" r="3"/><circle cx="332" cy="428" r="3"/><circle cx="352" cy="428" r="3"/><circle cx="372" cy="428" r="3"/><circle cx="392" cy="428" r="3"/><circle cx="412" cy="428" r="3"/><circle cx="432" cy="428" r="3"/><circle cx="452" cy="428" r="3"/><circle cx="472" cy="428" r="3"/><circle cx="492" cy="428" r="3"/><circle cx="512" cy="428" r="3"/><circle cx="532" cy="428" r="3"/><circle cx="552" cy="428" r="3"/><circle cx="572" cy="428" r="3"/><circle cx="592" cy="428" r="3"/><circle cx="612" cy="428" r="3"/><circle cx="632" cy="428" r="3"/><circle cx="652" cy="428" r="3"/><circle cx="672" cy="428" r="3"/><circle cx="692" cy="428" r="3"/><circle cx="712" cy="428" r="3"/><circle cx="732" cy="428" r="3"/><circle cx="752" cy="428" r="3"/><circle cx="772" cy="428" r="3"/><circle cx="792" cy="428" r="3"/><circle cx="812" cy="428" r="3"/><circle cx="832" cy="428" r="3"/><circle cx="852" cy="428" r="3"/><circle cx="872" cy="428" r="3"/><circle cx="892" cy="428" r="3"/><circle cx="912" cy="428" r="3"/><circle cx="932" cy="428" r="3"/><circle cx="952" cy="428" r="3"/><circle cx="972" cy="428" r="3"/><circle cx="992" cy="428" r="3"/><circle cx="1012" cy="428" r="3"/><circle cx="1032" cy="428" r="3"/><circle cx="1052" cy="428" r="3"/>
<circle cx="72"  cy="448" r="3"/><circle cx="92"  cy="448" r="3"/><circle cx="112" cy="448" r="3"/><circle cx="132" cy="448" r="3"/><circle cx="152" cy="448" r="3"/><circle cx="172" cy="448" r="3"/><circle cx="192" cy="448" r="3"/><circle cx="212" cy="448" r="3"/><circle cx="232" cy="448" r="3"/><circle cx="252" cy="448" r="3"/><circle cx="272" cy="448" r="3"/><circle cx="292" cy="448" r="3"/><circle cx="312" cy="448" r="3"/><circle cx="332" cy="448" r="3"/><circle cx="352" cy="448" r="3"/><circle cx="372" cy="448" r="3"/><circle cx="392" cy="448" r="3"/><circle cx="412" cy="448" r="3"/><circle cx="432" cy="448" r="3"/><circle cx="452" cy="448" r="3"/><circle cx="472" cy="448" r="3"/><circle cx="492" cy="448" r="3"/><circle cx="512" cy="448" r="3"/><circle cx="532" cy="448" r="3"/><circle cx="552" cy="448" r="3"/><circle cx="572" cy="448" r="3"/><circle cx="592" cy="448" r="3"/><circle cx="612" cy="448" r="3"/><circle cx="632" cy="448" r="3"/><circle cx="652" cy="448" r="3"/><circle cx="672" cy="448" r="3"/><circle cx="692" cy="448" r="3"/><circle cx="712" cy="448" r="3"/><circle cx="732" cy="448" r="3"/><circle cx="752" cy="448" r="3"/><circle cx="772" cy="448" r="3"/><circle cx="792" cy="448" r="3"/><circle cx="812" cy="448" r="3"/><circle cx="832" cy="448" r="3"/><circle cx="852" cy="448" r="3"/><circle cx="872" cy="448" r="3"/><circle cx="892" cy="448" r="3"/><circle cx="912" cy="448" r="3"/><circle cx="932" cy="448" r="3"/><circle cx="952" cy="448" r="3"/><circle cx="972" cy="448" r="3"/><circle cx="992" cy="448" r="3"/><circle cx="1012" cy="448" r="3"/><circle cx="1032" cy="448" r="3"/><circle cx="1052" cy="448" r="3"/>
<circle cx="72"  cy="468" r="3"/><circle cx="92"  cy="468" r="3"/><circle cx="112" cy="468" r="3"/><circle cx="132" cy="468" r="3"/><circle cx="152" cy="468" r="3"/><circle cx="172" cy="468" r="3"/><circle cx="192" cy="468" r="3"/><circle cx="212" cy="468" r="3"/><circle cx="232" cy="468" r="3"/><circle cx="252" cy="468" r="3"/><circle cx="272" cy="468" r="3"/><circle cx="292" cy="468" r="3"/><circle cx="312" cy="468" r="3"/><circle cx="332" cy="468" r="3"/><circle cx="352" cy="468" r="3"/><circle cx="372" cy="468" r="3"/><circle cx="392" cy="468" r="3"/><circle cx="412" cy="468" r="3"/><circle cx="432" cy="468" r="3"/><circle cx="452" cy="468" r="3"/><circle cx="472" cy="468" r="3"/><circle cx="492" cy="468" r="3"/><circle cx="512" cy="468" r="3"/><circle cx="532" cy="468" r="3"/><circle cx="552" cy="468" r="3"/><circle cx="572" cy="468" r="3"/><circle cx="592" cy="468" r="3"/><circle cx="612" cy="468" r="3"/><circle cx="632" cy="468" r="3"/><circle cx="652" cy="468" r="3"/><circle cx="672" cy="468" r="3"/><circle cx="692" cy="468" r="3"/><circle cx="712" cy="468" r="3"/><circle cx="732" cy="468" r="3"/><circle cx="752" cy="468" r="3"/><circle cx="772" cy="468" r="3"/><circle cx="792" cy="468" r="3"/><circle cx="812" cy="468" r="3"/><circle cx="832" cy="468" r="3"/><circle cx="852" cy="468" r="3"/><circle cx="872" cy="468" r="3"/><circle cx="892" cy="468" r="3"/><circle cx="912" cy="468" r="3"/><circle cx="932" cy="468" r="3"/><circle cx="952" cy="468" r="3"/><circle cx="972" cy="468" r="3"/><circle cx="992" cy="468" r="3"/><circle cx="1012" cy="468" r="3"/><circle cx="1032" cy="468" r="3"/><circle cx="1052" cy="468" r="3"/>
<circle cx="72"  cy="488" r="3"/><circle cx="92"  cy="488" r="3"/><circle cx="112" cy="488" r="3"/><circle cx="132" cy="488" r="3"/><circle cx="152" cy="488" r="3"/><circle cx="172" cy="488" r="3"/><circle cx="192" cy="488" r="3"/><circle cx="212" cy="488" r="3"/><circle cx="232" cy="488" r="3"/><circle cx="252" cy="488" r="3"/><circle cx="272" cy="488" r="3"/><circle cx="292" cy="488" r="3"/><circle cx="312" cy="488" r="3"/><circle cx="332" cy="488" r="3"/><circle cx="352" cy="488" r="3"/><circle cx="372" cy="488" r="3"/><circle cx="392" cy="488" r="3"/><circle cx="412" cy="488" r="3"/><circle cx="432" cy="488" r="3"/><circle cx="452" cy="488" r="3"/><circle cx="472" cy="488" r="3"/><circle cx="492" cy="488" r="3"/><circle cx="512" cy="488" r="3"/><circle cx="532" cy="488" r="3"/><circle cx="552" cy="488" r="3"/><circle cx="572" cy="488" r="3"/><circle cx="592" cy="488" r="3"/><circle cx="612" cy="488" r="3"/><circle cx="632" cy="488" r="3"/><circle cx="652" cy="488" r="3"/><circle cx="672" cy="488" r="3"/><circle cx="692" cy="488" r="3"/><circle cx="712" cy="488" r="3"/><circle cx="732" cy="488" r="3"/><circle cx="752" cy="488" r="3"/><circle cx="772" cy="488" r="3"/><circle cx="792" cy="488" r="3"/><circle cx="812" cy="488" r="3"/><circle cx="832" cy="488" r="3"/><circle cx="852" cy="488" r="3"/><circle cx="872" cy="488" r="3"/><circle cx="892" cy="488" r="3"/><circle cx="912" cy="488" r="3"/><circle cx="932" cy="488" r="3"/><circle cx="952" cy="488" r="3"/><circle cx="972" cy="488" r="3"/><circle cx="992" cy="488" r="3"/><circle cx="1012" cy="488" r="3"/><circle cx="1032" cy="488" r="3"/><circle cx="1052" cy="488" r="3"/>
<circle cx="72"  cy="508" r="3"/><circle cx="92"  cy="508" r="3"/><circle cx="112" cy="508" r="3"/><circle cx="132" cy="508" r="3"/><circle cx="152" cy="508" r="3"/><circle cx="172" cy="508" r="3"/><circle cx="192" cy="508" r="3"/><circle cx="212" cy="508" r="3"/><circle cx="232" cy="508" r="3"/><circle cx="252" cy="508" r="3"/><circle cx="272" cy="508" r="3"/><circle cx="292" cy="508" r="3"/><circle cx="312" cy="508" r="3"/><circle cx="332" cy="508" r="3"/><circle cx="352" cy="508" r="3"/><circle cx="372" cy="508" r="3"/><circle cx="392" cy="508" r="3"/><circle cx="412" cy="508" r="3"/><circle cx="432" cy="508" r="3"/><circle cx="452" cy="508" r="3"/><circle cx="472" cy="508" r="3"/><circle cx="492" cy="508" r="3"/><circle cx="512" cy="508" r="3"/><circle cx="532" cy="508" r="3"/><circle cx="552" cy="508" r="3"/><circle cx="572" cy="508" r="3"/><circle cx="592" cy="508" r="3"/><circle cx="612" cy="508" r="3"/><circle cx="632" cy="508" r="3"/><circle cx="652" cy="508" r="3"/><circle cx="672" cy="508" r="3"/><circle cx="692" cy="508" r="3"/><circle cx="712" cy="508" r="3"/><circle cx="732" cy="508" r="3"/><circle cx="752" cy="508" r="3"/><circle cx="772" cy="508" r="3"/><circle cx="792" cy="508" r="3"/><circle cx="812" cy="508" r="3"/><circle cx="832" cy="508" r="3"/><circle cx="852" cy="508" r="3"/><circle cx="872" cy="508" r="3"/><circle cx="892" cy="508" r="3"/><circle cx="912" cy="508" r="3"/><circle cx="932" cy="508" r="3"/><circle cx="952" cy="508" r="3"/><circle cx="972" cy="508" r="3"/><circle cx="992" cy="508" r="3"/><circle cx="1012" cy="508" r="3"/><circle cx="1032" cy="508" r="3"/><circle cx="1052" cy="508" r="3"/>
<circle cx="72"  cy="528" r="3"/><circle cx="92"  cy="528" r="3"/><circle cx="112" cy="528" r="3"/><circle cx="132" cy="528" r="3"/><circle cx="152" cy="528" r="3"/><circle cx="172" cy="528" r="3"/><circle cx="192" cy="528" r="3"/><circle cx="212" cy="528" r="3"/><circle cx="232" cy="528" r="3"/><circle cx="252" cy="528" r="3"/><circle cx="272" cy="528" r="3"/><circle cx="292" cy="528" r="3"/><circle cx="312" cy="528" r="3"/><circle cx="332" cy="528" r="3"/><circle cx="352" cy="528" r="3"/><circle cx="372" cy="528" r="3"/><circle cx="392" cy="528" r="3"/><circle cx="412" cy="528" r="3"/><circle cx="432" cy="528" r="3"/><circle cx="452" cy="528" r="3"/><circle cx="472" cy="528" r="3"/><circle cx="492" cy="528" r="3"/><circle cx="512" cy="528" r="3"/><circle cx="532" cy="528" r="3"/><circle cx="552" cy="528" r="3"/><circle cx="572" cy="528" r="3"/><circle cx="592" cy="528" r="3"/><circle cx="612" cy="528" r="3"/><circle cx="632" cy="528" r="3"/><circle cx="652" cy="528" r="3"/><circle cx="672" cy="528" r="3"/><circle cx="692" cy="528" r="3"/><circle cx="712" cy="528" r="3"/><circle cx="732" cy="528" r="3"/><circle cx="752" cy="528" r="3"/><circle cx="772" cy="528" r="3"/><circle cx="792" cy="528" r="3"/><circle cx="812" cy="528" r="3"/><circle cx="832" cy="528" r="3"/><circle cx="852" cy="528" r="3"/><circle cx="872" cy="528" r="3"/><circle cx="892" cy="528" r="3"/><circle cx="912" cy="528" r="3"/><circle cx="932" cy="528" r="3"/><circle cx="952" cy="528" r="3"/><circle cx="972" cy="528" r="3"/><circle cx="992" cy="528" r="3"/><circle cx="1012" cy="528" r="3"/><circle cx="1032" cy="528" r="3"/><circle cx="1052" cy="528" r="3"/>
<circle cx="72"  cy="548" r="3"/><circle cx="92"  cy="548" r="3"/><circle cx="112" cy="548" r="3"/><circle cx="132" cy="548" r="3"/><circle cx="152" cy="548" r="3"/><circle cx="172" cy="548" r="3"/><circle cx="192" cy="548" r="3"/><circle cx="212" cy="548" r="3"/><circle cx="232" cy="548" r="3"/><circle cx="252" cy="548" r="3"/><circle cx="272" cy="548" r="3"/><circle cx="292" cy="548" r="3"/><circle cx="312" cy="548" r="3"/><circle cx="332" cy="548" r="3"/><circle cx="352" cy="548" r="3"/><circle cx="372" cy="548" r="3"/><circle cx="392" cy="548" r="3"/><circle cx="412" cy="548" r="3"/><circle cx="432" cy="548" r="3"/><circle cx="452" cy="548" r="3"/><circle cx="472" cy="548" r="3"/><circle cx="492" cy="548" r="3"/><circle cx="512" cy="548" r="3"/><circle cx="532" cy="548" r="3"/><circle cx="552" cy="548" r="3"/><circle cx="572" cy="548" r="3"/><circle cx="592" cy="548" r="3"/><circle cx="612" cy="548" r="3"/><circle cx="632" cy="548" r="3"/><circle cx="652" cy="548" r="3"/><circle cx="672" cy="548" r="3"/><circle cx="692" cy="548" r="3"/><circle cx="712" cy="548" r="3"/><circle cx="732" cy="548" r="3"/><circle cx="752" cy="548" r="3"/><circle cx="772" cy="548" r="3"/><circle cx="792" cy="548" r="3"/><circle cx="812" cy="548" r="3"/><circle cx="832" cy="548" r="3"/><circle cx="852" cy="548" r="3"/><circle cx="872" cy="548" r="3"/><circle cx="892" cy="548" r="3"/><circle cx="912" cy="548" r="3"/><circle cx="932" cy="548" r="3"/><circle cx="952" cy="548" r="3"/><circle cx="972" cy="548" r="3"/><circle cx="992" cy="548" r="3"/><circle cx="1012" cy="548" r="3"/><circle cx="1032" cy="548" r="3"/><circle cx="1052" cy="548" r="3"/>
<circle cx="72"  cy="568" r="3"/><circle cx="92"  cy="568" r="3"/><circle cx="112" cy="568" r="3"/><circle cx="132" cy="568" r="3"/><circle cx="152" cy="568" r="3"/><circle cx="172" cy="568" r="3"/><circle cx="192" cy="568" r="3"/><circle cx="212" cy="568" r="3"/><circle cx="232" cy="568" r="3"/><circle cx="252" cy="568" r="3"/><circle cx="272" cy="568" r="3"/><circle cx="292" cy="568" r="3"/><circle cx="312" cy="568" r="3"/><circle cx="332" cy="568" r="3"/><circle cx="352" cy="568" r="3"/><circle cx="372" cy="568" r="3"/><circle cx="392" cy="568" r="3"/><circle cx="412" cy="568" r="3"/><circle cx="432" cy="568" r="3"/><circle cx="452" cy="568" r="3"/><circle cx="472" cy="568" r="3"/><circle cx="492" cy="568" r="3"/><circle cx="512" cy="568" r="3"/><circle cx="532" cy="568" r="3"/><circle cx="552" cy="568" r="3"/><circle cx="572" cy="568" r="3"/><circle cx="592" cy="568" r="3"/><circle cx="612" cy="568" r="3"/><circle cx="632" cy="568" r="3"/><circle cx="652" cy="568" r="3"/><circle cx="672" cy="568" r="3"/><circle cx="692" cy="568" r="3"/><circle cx="712" cy="568" r="3"/><circle cx="732" cy="568" r="3"/><circle cx="752" cy="568" r="3"/><circle cx="772" cy="568" r="3"/><circle cx="792" cy="568" r="3"/><circle cx="812" cy="568" r="3"/><circle cx="832" cy="568" r="3"/><circle cx="852" cy="568" r="3"/><circle cx="872" cy="568" r="3"/><circle cx="892" cy="568" r="3"/><circle cx="912" cy="568" r="3"/><circle cx="932" cy="568" r="3"/><circle cx="952" cy="568" r="3"/><circle cx="972" cy="568" r="3"/><circle cx="992" cy="568" r="3"/><circle cx="1012" cy="568" r="3"/><circle cx="1032" cy="568" r="3"/><circle cx="1052" cy="568" r="3"/>
<circle cx="72"  cy="588" r="3"/><circle cx="92"  cy="588" r="3"/><circle cx="112" cy="588" r="3"/><circle cx="132" cy="588" r="3"/><circle cx="152" cy="588" r="3"/><circle cx="172" cy="588" r="3"/><circle cx="192" cy="588" r="3"/><circle cx="212" cy="588" r="3"/><circle cx="232" cy="588" r="3"/><circle cx="252" cy="588" r="3"/><circle cx="272" cy="588" r="3"/><circle cx="292" cy="588" r="3"/><circle cx="312" cy="588" r="3"/><circle cx="332" cy="588" r="3"/><circle cx="352" cy="588" r="3"/><circle cx="372" cy="588" r="3"/><circle cx="392" cy="588" r="3"/><circle cx="412" cy="588" r="3"/><circle cx="432" cy="588" r="3"/><circle cx="452" cy="588" r="3"/><circle cx="472" cy="588" r="3"/><circle cx="492" cy="588" r="3"/><circle cx="512" cy="588" r="3"/><circle cx="532" cy="588" r="3"/><circle cx="552" cy="588" r="3"/><circle cx="572" cy="588" r="3"/><circle cx="592" cy="588" r="3"/><circle cx="612" cy="588" r="3"/><circle cx="632" cy="588" r="3"/><circle cx="652" cy="588" r="3"/><circle cx="672" cy="588" r="3"/><circle cx="692" cy="588" r="3"/><circle cx="712" cy="588" r="3"/><circle cx="732" cy="588" r="3"/><circle cx="752" cy="588" r="3"/><circle cx="772" cy="588" r="3"/><circle cx="792" cy="588" r="3"/><circle cx="812" cy="588" r="3"/><circle cx="832" cy="588" r="3"/><circle cx="852" cy="588" r="3"/><circle cx="872" cy="588" r="3"/><circle cx="892" cy="588" r="3"/><circle cx="912" cy="588" r="3"/><circle cx="932" cy="588" r="3"/><circle cx="952" cy="588" r="3"/><circle cx="972" cy="588" r="3"/><circle cx="992" cy="588" r="3"/><circle cx="1012" cy="588" r="3"/><circle cx="1032" cy="588" r="3"/><circle cx="1052" cy="588" r="3"/>
<circle cx="72"  cy="608" r="3"/><circle cx="92"  cy="608" r="3"/><circle cx="112" cy="608" r="3"/><circle cx="132" cy="608" r="3"/><circle cx="152" cy="608" r="3"/><circle cx="172" cy="608" r="3"/><circle cx="192" cy="608" r="3"/><circle cx="212" cy="608" r="3"/><circle cx="232" cy="608" r="3"/><circle cx="252" cy="608" r="3"/><circle cx="272" cy="608" r="3"/><circle cx="292" cy="608" r="3"/><circle cx="312" cy="608" r="3"/><circle cx="332" cy="608" r="3"/><circle cx="352" cy="608" r="3"/><circle cx="372" cy="608" r="3"/><circle cx="392" cy="608" r="3"/><circle cx="412" cy="608" r="3"/><circle cx="432" cy="608" r="3"/><circle cx="452" cy="608" r="3"/><circle cx="472" cy="608" r="3"/><circle cx="492" cy="608" r="3"/><circle cx="512" cy="608" r="3"/><circle cx="532" cy="608" r="3"/><circle cx="552" cy="608" r="3"/><circle cx="572" cy="608" r="3"/><circle cx="592" cy="608" r="3"/><circle cx="612" cy="608" r="3"/><circle cx="632" cy="608" r="3"/><circle cx="652" cy="608" r="3"/><circle cx="672" cy="608" r="3"/><circle cx="692" cy="608" r="3"/><circle cx="712" cy="608" r="3"/><circle cx="732" cy="608" r="3"/><circle cx="752" cy="608" r="3"/><circle cx="772" cy="608" r="3"/><circle cx="792" cy="608" r="3"/><circle cx="812" cy="608" r="3"/><circle cx="832" cy="608" r="3"/><circle cx="852" cy="608" r="3"/><circle cx="872" cy="608" r="3"/><circle cx="892" cy="608" r="3"/><circle cx="912" cy="608" r="3"/><circle cx="932" cy="608" r="3"/><circle cx="952" cy="608" r="3"/><circle cx="972" cy="608" r="3"/><circle cx="992" cy="608" r="3"/><circle cx="1012" cy="608" r="3"/><circle cx="1032" cy="608" r="3"/><circle cx="1052" cy="608" r="3"/>
<circle cx="72"  cy="628" r="3"/><circle cx="92"  cy="628" r="3"/><circle cx="112" cy="628" r="3"/><circle cx="132" cy="628" r="3"/><circle cx="152" cy="628" r="3"/><circle cx="172" cy="628" r="3"/><circle cx="192" cy="628" r="3"/><circle cx="212" cy="628" r="3"/><circle cx="232" cy="628" r="3"/><circle cx="252" cy="628" r="3"/><circle cx="272" cy="628" r="3"/><circle cx="292" cy="628" r="3"/><circle cx="312" cy="628" r="3"/><circle cx="332" cy="628" r="3"/><circle cx="352" cy="628" r="3"/><circle cx="372" cy="628" r="3"/><circle cx="392" cy="628" r="3"/><circle cx="412" cy="628" r="3"/><circle cx="432" cy="628" r="3"/><circle cx="452" cy="628" r="3"/><circle cx="472" cy="628" r="3"/><circle cx="492" cy="628" r="3"/><circle cx="512" cy="628" r="3"/><circle cx="532" cy="628" r="3"/><circle cx="552" cy="628" r="3"/><circle cx="572" cy="628" r="3"/><circle cx="592" cy="628" r="3"/><circle cx="612" cy="628" r="3"/><circle cx="632" cy="628" r="3"/><circle cx="652" cy="628" r="3"/><circle cx="672" cy="628" r="3"/><circle cx="692" cy="628" r="3"/><circle cx="712" cy="628" r="3"/><circle cx="732" cy="628" r="3"/><circle cx="752" cy="628" r="3"/><circle cx="772" cy="628" r="3"/><circle cx="792" cy="628" r="3"/><circle cx="812" cy="628" r="3"/><circle cx="832" cy="628" r="3"/><circle cx="852" cy="628" r="3"/><circle cx="872" cy="628" r="3"/><circle cx="892" cy="628" r="3"/><circle cx="912" cy="628" r="3"/><circle cx="932" cy="628" r="3"/><circle cx="952" cy="628" r="3"/><circle cx="972" cy="628" r="3"/><circle cx="992" cy="628" r="3"/><circle cx="1012" cy="628" r="3"/><circle cx="1032" cy="628" r="3"/><circle cx="1052" cy="628" r="3"/>
<circle cx="72"  cy="648" r="3"/><circle cx="92"  cy="648" r="3"/><circle cx="112" cy="648" r="3"/><circle cx="132" cy="648" r="3"/><circle cx="152" cy="648" r="3"/><circle cx="172" cy="648" r="3"/><circle cx="192" cy="648" r="3"/><circle cx="212" cy="648" r="3"/><circle cx="232" cy="648" r="3"/><circle cx="252" cy="648" r="3"/><circle cx="272" cy="648" r="3"/><circle cx="292" cy="648" r="3"/><circle cx="312" cy="648" r="3"/><circle cx="332" cy="648" r="3"/><circle cx="352" cy="648" r="3"/><circle cx="372" cy="648" r="3"/><circle cx="392" cy="648" r="3"/><circle cx="412" cy="648" r="3"/><circle cx="432" cy="648" r="3"/><circle cx="452" cy="648" r="3"/><circle cx="472" cy="648" r="3"/><circle cx="492" cy="648" r="3"/><circle cx="512" cy="648" r="3"/><circle cx="532" cy="648" r="3"/><circle cx="552" cy="648" r="3"/><circle cx="572" cy="648" r="3"/><circle cx="592" cy="648" r="3"/><circle cx="612" cy="648" r="3"/><circle cx="632" cy="648" r="3"/><circle cx="652" cy="648" r="3"/><circle cx="672" cy="648" r="3"/><circle cx="692" cy="648" r="3"/><circle cx="712" cy="648" r="3"/><circle cx="732" cy="648" r="3"/><circle cx="752" cy="648" r="3"/><circle cx="772" cy="648" r="3"/><circle cx="792" cy="648" r="3"/><circle cx="812" cy="648" r="3"/><circle cx="832" cy="648" r="3"/><circle cx="852" cy="648" r="3"/><circle cx="872" cy="648" r="3"/><circle cx="892" cy="648" r="3"/><circle cx="912" cy="648" r="3"/><circle cx="932" cy="648" r="3"/><circle cx="952" cy="648" r="3"/><circle cx="972" cy="648" r="3"/><circle cx="992" cy="648" r="3"/><circle cx="1012" cy="648" r="3"/><circle cx="1032" cy="648" r="3"/><circle cx="1052" cy="648" r="3"/>
</g>

<!-- 3.3V rail (red) horizontal line along top of protoboard -->
<line x1="38" y1="383" x2="1060" y2="383" stroke="#ef4444" stroke-width="1.5" stroke-dasharray="4,2" opacity="0.5"/>
<!-- GND rail (dark) horizontal line -->
<line x1="38" y1="393" x2="1060" y2="393" stroke="#475569" stroke-width="1.5" stroke-dasharray="4,2" opacity="0.5"/>
<text x="30" y="386" text-anchor="end" class="dim" fill="#ef4444">+3V3</text>
<text x="30" y="397" text-anchor="end" class="dim" fill="#475569">GND</text>

<!-- ── COMPONENT: 4.7kΩ 1-Wire pull-up  row 3, cols 3-7 ─────── -->
<line x1="44" y1="383" x2="72" y2="428" stroke="#ef4444" stroke-width="1.5" stroke-dasharray="3,2"/>
<rect x="72" y="422" width="80" height="12" fill="#92400e" stroke="#e8940a" stroke-width="1.5" rx="3"/>
<line x1="112" y1="422" x2="112" y2="415" stroke="#eab308" stroke-width="3"/>
<line x1="120" y1="422" x2="120" y2="415" stroke="#7c3aed" stroke-width="3"/>
<line x1="128" y1="422" x2="128" y2="415" stroke="#ef4444" stroke-width="3"/>
<line x1="136" y1="422" x2="136" y2="415" stroke="#d4a017" stroke-width="2"/>
<text x="112" y="415" text-anchor="middle" class="val">4.7 kΩ</text>
<!-- left leg to 3.3V rail -->
<!-- right leg jumper to GPIO25 -->
<circle cx="152" cy="428" r="4" fill="#e8940a"/>
<line x1="152" y1="428" x2="152" y2="648" stroke="#06b6d4" stroke-width="1.5" stroke-dasharray="4,3"/>
<text x="160" y="643" class="pin">→ GPIO25</text>
<text x="30" y="432" text-anchor="end" class="lbl" fill="#e8940a">R pull</text>

<!-- ── COMPONENT: 100Ω fuel sense  row 5, cols 3-7 ─────────── -->
<line x1="44" y1="383" x2="72" y2="468" stroke="#ef4444" stroke-width="1.5" stroke-dasharray="3,2"/>
<rect x="72" y="462" width="80" height="12" fill="#7c2d12" stroke="#e8940a" stroke-width="1.5" rx="3"/>
<line x1="100" y1="462" x2="100" y2="455" stroke="#92400e" stroke-width="3"/>
<line x1="108" y1="462" x2="108" y2="455" stroke="#1e293b" stroke-width="3"/>
<line x1="116" y1="462" x2="116" y2="455" stroke="#92400e" stroke-width="3"/>
<line x1="124" y1="462" x2="124" y2="455" stroke="#d4a017" stroke-width="2"/>
<text x="112" y="455" text-anchor="middle" class="val">100 Ω</text>
<circle cx="152" cy="468" r="4" fill="#e8940a"/>
<line x1="152" y1="468" x2="192" y2="648" stroke="#06b6d4" stroke-width="1.5" stroke-dasharray="4,3"/>
<text x="200" y="643" class="pin">→ GPIO39</text>
<!-- right leg to screw terminal for fuel sender -->
<line x1="72" y1="468" x2="54" y2="468" stroke="#94a3b8" stroke-width="1.5"/>
<line x1="54" y1="468" x2="54" y2="648" stroke="#94a3b8" stroke-width="1.5" stroke-dasharray="4,3"/>
<text x="42" y="643" text-anchor="middle" class="pin" fill="#94a3b8">FUEL−</text>
<text x="30" y="472" text-anchor="end" class="lbl" fill="#e8940a">R sense</text>

<!-- ── COMPONENT: 100kΩ R1  row 7, cols 12-16 ──────────────── -->
<rect x="272" y="502" width="80" height="12" fill="#78350f" stroke="#e8940a" stroke-width="1.5" rx="3"/>
<line x1="300" y1="502" x2="300" y2="495" stroke="#92400e" stroke-width="3"/>
<line x1="308" y1="502" x2="308" y2="495" stroke="#1e293b" stroke-width="3"/>
<line x1="316" y1="502" x2="316" y2="495" stroke="#eab308" stroke-width="3"/>
<line x1="324" y1="502" x2="324" y2="495" stroke="#d4a017" stroke-width="2"/>
<text x="312" y="495" text-anchor="middle" class="val">100 kΩ  R1</text>
<!-- left leg to BAT+ screw terminal -->
<line x1="272" y1="508" x2="232" y2="508" stroke="#ef4444" stroke-width="1.5"/>
<line x1="232" y1="508" x2="232" y2="648" stroke="#ef4444" stroke-width="1.5" stroke-dasharray="4,3"/>
<text x="232" y="665" text-anchor="middle" class="pin" fill="#ef4444">BAT+</text>
<text x="232" y="675" text-anchor="middle" class="note">(via 1A fuse)</text>
<!-- right leg / junction node -->
<circle cx="352" cy="508" r="4" fill="#e8940a"/>
<!-- jumper to GPIO35 -->
<line x1="352" y1="508" x2="352" y2="648" stroke="#06b6d4" stroke-width="1.5" stroke-dasharray="4,3"/>
<text x="360" y="643" class="pin">→ GPIO35</text>
<text x="255" y="498" text-anchor="end" class="lbl" fill="#e8940a">R1</text>

<!-- ── COMPONENT: 27kΩ R2  row 9, cols 16-20 ───────────────── -->
<rect x="352" y="542" width="80" height="12" fill="#581c87" stroke="#e8940a" stroke-width="1.5" rx="3"/>
<line x1="372" y1="542" x2="372" y2="535" stroke="#ef4444" stroke-width="3"/>
<line x1="380" y1="542" x2="380" y2="535" stroke="#7c3aed" stroke-width="3"/>
<line x1="388" y1="542" x2="388" y2="535" stroke="#f97316" stroke-width="3"/>
<line x1="396" y1="542" x2="396" y2="535" stroke="#d4a017" stroke-width="2"/>
<text x="392" y="535" text-anchor="middle" class="val">27 kΩ  R2</text>
<!-- top leg tied to R1 junction -->
<line x1="352" y1="542" x2="352" y2="508" stroke="#e8940a" stroke-width="1.5"/>
<!-- bottom leg to GND rail -->
<line x1="432" y1="548" x2="432" y2="648" stroke="#475569" stroke-width="1.5" stroke-dasharray="4,3"/>
<line x1="432" y1="648" x2="54" y2="648" stroke="#475569" stroke-width="1.5"/>
<text x="42" y="652" text-anchor="end" class="dim" fill="#475569">GND</text>
<text x="335" y="537" text-anchor="end" class="lbl" fill="#e8940a">R2</text>

<!-- ── COMPONENT: 100nF cap  row 9, cols 22-23 (parallel R2) ── -->
<line x1="492" y1="508" x2="492" y2="528" stroke="#06b6d4" stroke-width="1.5"/>
<line x1="352" y1="508" x2="492" y2="508" stroke="#06b6d4" stroke-width="1" stroke-dasharray="2,2"/>
<line x1="480" y1="535" x2="504" y2="535" stroke="#06b6d4" stroke-width="3"/>
<line x1="480" y1="541" x2="504" y2="541" stroke="#06b6d4" stroke-width="3"/>
<text x="510" y="540" class="val" fill="#06b6d4">100nF</text>
<text x="510" y="550" class="note">"104"</text>
<line x1="492" y1="541" x2="492" y2="548" stroke="#475569" stroke-width="1.5"/>
<line x1="432" y1="548" x2="492" y2="548" stroke="#475569" stroke-width="1" stroke-dasharray="2,2"/>

<!-- ══════════════════════════════════════════════════════════ -->
<!-- LEGEND + COMPONENT LIST  y=695–880                        -->
<!-- ══════════════════════════════════════════════════════════ -->
<rect x="25" y="695" width="1060" height="185" fill="#0d1318" stroke="#1e3a4a" stroke-width="1" rx="4"/>
<text x="555" y="714" text-anchor="middle" class="head">Shopping List  /  Values Summary</text>

<!-- Component table -->
<text x="40"  y="734" class="lbl">QTY</text>
<text x="80"  y="734" class="lbl">VALUE</text>
<text x="220" y="734" class="lbl">MARKING / COLOR BANDS</text>
<text x="490" y="734" class="lbl">USED FOR</text>
<text x="780" y="734" class="lbl">PIN</text>
<line x1="30" y1="738" x2="1070" y2="738" stroke="#1e3a4a" stroke-width="1"/>

<text x="40"  y="754" class="val">1×</text><text x="80"  y="754" class="lbl">4.7 kΩ  ¼W</text><text x="220" y="754" class="note">Yellow · Violet · Red · Gold</text><text x="490" y="754" class="lbl">1-Wire pull-up (DS18B20 data → 3.3V)</text><text x="780" y="754" class="pin">GPIO25</text>
<text x="40"  y="770" class="val">1×</text><text x="80"  y="770" class="lbl">100 Ω   ¼W</text><text x="220" y="770" class="note">Brown · Black · Brown · Gold</text><text x="490" y="770" class="lbl">Fuel sender sense resistor (3.3V side)</text><text x="780" y="770" class="pin">GPIO39</text>
<text x="40"  y="786" class="val">1×</text><text x="80"  y="786" class="lbl">100 kΩ  ¼W</text><text x="220" y="786" class="note">Brown · Black · Yellow · Gold</text><text x="490" y="786" class="lbl">Battery divider R1  (BAT+ to junction)</text><text x="780" y="786" class="pin">GPIO35  top</text>
<text x="40"  y="802" class="val">1×</text><text x="80"  y="802" class="lbl">27 kΩ   ¼W</text><text x="220" y="802" class="note">Red · Violet · Orange · Gold</text><text x="490" y="802" class="lbl">Battery divider R2  (junction to GND)</text><text x="780" y="802" class="pin">GPIO35  bottom</text>
<text x="40"  y="818" class="val">1×</text><text x="80"  y="818" class="lbl">100 nF ceramic</text><text x="220" y="818" class="note">Marked "104"  (any voltage ≥ 25V)</text><text x="490" y="818" class="lbl">Noise filter cap — solder across R2</text><text x="780" y="818" class="pin">parallel R2</text>

<line x1="30" y1="828" x2="1070" y2="828" stroke="#1e3a4a" stroke-width="1"/>
<text x="40" y="845" class="warn">⚠  Wires from BAT+ (starter battery positive) MUST be fused inline — use 1A fuse holder in series before R1.</text>
<text x="40" y="860" class="warn">⚠  Ensure ESP32 GND ties to boat ground for fuel sender reading to be accurate.</text>
<text x="40" y="875" class="note">Rudder pot (GPIO36): no resistors needed — pot spans 3.3V to GND directly. Add terminal pads only.</text>
</svg>
