<svg xmlns="http://www.w3.org/2000/svg" viewBox="0 0 1100 700" width="1100" height="700">
<defs>
  <style>
    text { font-family: 'Courier New', monospace; }
    .title { font-size:17px; font-weight:bold; fill:#e8940a; }
    .head  { font-size:12px; font-weight:bold; fill:#06b6d4; }
    .lbl   { font-size:11px; fill:#e2e8f0; }
    .val   { font-size:10px; font-weight:bold; fill:#e8940a; }
    .pin   { font-size:10px; fill:#06b6d4; }
    .note  { font-size:9px;  fill:#64748b; }
    .warn  { font-size:9px;  fill:#f59e0b; }
    .dim   { font-size:9px;  fill:#475569; }
    .sw    { font-size:11px; font-weight:bold; fill:#22c55e; }
    .spare { font-size:11px; font-weight:bold; fill:#94a3b8; }
    .relay { font-size:9px;  fill:#a78bfa; }
  </style>
</defs>

<!-- ── BACKGROUND ─────────────────────────────────────────────── -->
<rect width="1100" height="700" fill="#080c10"/>
<rect x="10" y="10" width="1080" height="680" fill="#0d1318" rx="6" stroke="#1e2832" stroke-width="1"/>

<!-- ── TITLE ──────────────────────────────────────────────────── -->
<text x="550" y="36" text-anchor="middle" class="title">SV-Esperanza — ESP32 Switch Inputs  SW4–SW11</text>
<text x="550" y="52" text-anchor="middle" class="dim">One wire to GPIO pin · one wire to GND · no external resistors (ESP32 internal pull-ups)</text>

<!-- ══════════════════════════════════════════════════════════════ -->
<!-- SECTION 1: Generic circuit schematic    x=20..440  y=60..295 -->
<!-- ══════════════════════════════════════════════════════════════ -->
<rect x="20" y="60" width="420" height="238" fill="#0d1116" stroke="#1e3a4a" stroke-width="1" rx="4"/>
<text x="230" y="78" text-anchor="middle" class="head">Generic Input Circuit  (same for every switch)</text>

<!-- ESP32 internal dashed box -->
<rect x="34" y="88" width="200" height="185" fill="#080c10" stroke="#334155" stroke-width="1" stroke-dasharray="5,3" rx="3"/>
<text x="134" y="103" text-anchor="middle" class="dim">ESP32  (internal)</text>

<!-- 3.3V -->
<text x="90" y="121" text-anchor="middle" class="val" fill="#ef4444">3.3V</text>
<line x1="90" y1="124" x2="90" y2="138" stroke="#ef4444" stroke-width="2"/>

<!-- Internal pull-up resistor (dashed = internal to chip) -->
<rect x="73" y="138" width="34" height="46" fill="#0d1318" stroke="#e8940a" stroke-width="1" stroke-dasharray="3,2" rx="2"/>
<text x="90" y="156" text-anchor="middle" class="note" fill="#94a3b8">~10 kΩ</text>
<text x="90" y="167" text-anchor="middle" class="dim">pull-up</text>
<!-- Line from R bottom to node -->
<line x1="90" y1="184" x2="90" y2="215" stroke="#e8940a" stroke-width="1.5"/>
<!-- Junction node -->
<circle cx="90" cy="215" r="3.5" fill="#e8940a"/>
<!-- GPIO label -->
<text x="98" y="211" class="pin">GPIO_xx</text>
<!-- GPIO line exits ESP32 box right -->
<line x1="90" y1="215" x2="234" y2="215" stroke="#06b6d4" stroke-width="2"/>

<!-- 2-pin screw terminal block ─────────────────────────────── -->
<!-- T1 (signal) -->
<rect x="244" y="200" width="30" height="30" fill="#0d2218" stroke="#22c55e" stroke-width="1.5" rx="2"/>
<line x1="252" y1="208" x2="266" y2="222" stroke="#22c55e" stroke-width="1.2"/>
<line x1="266" y1="208" x2="252" y2="222" stroke="#22c55e" stroke-width="1.2"/>
<text x="259" y="243" text-anchor="middle" class="sw" fill="#22c55e">T1</text>
<text x="259" y="253" text-anchor="middle" class="note" fill="#22c55e">SIGNAL</text>
<!-- T2 (GND) -->
<rect x="274" y="200" width="30" height="30" fill="#131a24" stroke="#94a3b8" stroke-width="1.5" rx="2"/>
<line x1="282" y1="208" x2="296" y2="222" stroke="#94a3b8" stroke-width="1.2"/>
<line x1="296" y1="208" x2="282" y2="222" stroke="#94a3b8" stroke-width="1.2"/>
<text x="289" y="243" text-anchor="middle" class="lbl" fill="#94a3b8">T2</text>
<text x="259" y="253" text-anchor="middle" class="note"/>
<text x="289" y="253" text-anchor="middle" class="note">GND</text>

<!-- GPIO line arrives at T1 -->
<line x1="234" y1="215" x2="244" y2="215" stroke="#06b6d4" stroke-width="2"/>
<!-- GND line drops from T2 to GND symbol -->
<line x1="289" y1="230" x2="289" y2="262" stroke="#94a3b8" stroke-width="1.5"/>
<line x1="275" y1="262" x2="303" y2="262" stroke="#94a3b8" stroke-width="2"/>
<line x1="279" y1="267" x2="299" y2="267" stroke="#94a3b8" stroke-width="1.5"/>
<line x1="283" y1="272" x2="295" y2="272" stroke="#94a3b8" stroke-width="1"/>
<text x="289" y="284" text-anchor="middle" class="note">GND rail</text>

<!-- External switch wires going off to boat panel -->
<line x1="304" y1="215" x2="380" y2="215" stroke="#e2e8f0" stroke-width="1.5" stroke-dasharray="6,3"/>
<text x="385" y="205" class="lbl" fill="#94a3b8">← boat</text>
<text x="385" y="217" class="lbl" fill="#94a3b8">   panel</text>
<text x="385" y="229" class="lbl" fill="#94a3b8">   switch</text>
<!-- Small switch symbol at ~x=345 -->
<circle cx="330" cy="209" r="2" fill="#e2e8f0"/>
<circle cx="360" cy="209" r="2" fill="#e2e8f0"/>
<line x1="330" y1="209" x2="330" y2="215" stroke="#e2e8f0" stroke-width="1.5"/>
<line x1="360" y1="209" x2="360" y2="215" stroke="#e2e8f0" stroke-width="1.5"/>
<!-- open gap line (arc-style) -->
<line x1="330" y1="209" x2="355" y2="202" stroke="#e2e8f0" stroke-width="1.2"/>

<!-- State labels -->
<text x="34" y="165" class="note" fill="#22c55e">open → GPIO HIGH (3.3V) · relay unchanged</text>
<text x="34" y="176" class="note" fill="#f87171">closed → GPIO LOW · on_press fires</text>
<text x="34" y="187" class="note" fill="#a78bfa">→ POST /api/relay/N  {"action":"toggle"}</text>

<!-- Two-wire note -->
<text x="34" y="270" class="note">Run 2 wires from protoboard terminals to each switch:</text>
<text x="34" y="280" class="note" fill="#22c55e">wire 1 → T1 (GPIO)</text>
<text x="160" y="280" class="note" fill="#94a3b8">  wire 2 → T2 (GND)</text>
<text x="34" y="290" class="note">Switches do not need to be polarized — any SPST momentary or toggle works.</text>

<!-- ══════════════════════════════════════════════════════════════ -->
<!-- SECTION 2: Assignment table              x=450..1080 y=60..295 -->
<!-- ══════════════════════════════════════════════════════════════ -->
<rect x="450" y="60" width="630" height="238" fill="#0d1116" stroke="#1e3a4a" stroke-width="1" rx="4"/>
<text x="765" y="78" text-anchor="middle" class="head">Switch Assignments</text>

<!-- Table header -->
<text x="466"  y="97" class="val">SW#</text>
<text x="520"  y="97" class="val">GPIO</text>
<text x="600"  y="97" class="val">RELAY CH</text>
<text x="720"  y="97" class="val">LOAD</text>
<text x="950"  y="97" class="val">PROTOBOARD TERMINAL</text>
<line x1="460" y1="101" x2="1070" y2="101" stroke="#1e3a4a" stroke-width="1"/>

<!-- SW4 -->
<text x="466" y="118" class="sw">SW4</text>
<text x="520" y="118" class="pin">GPIO32</text>
<text x="600" y="118" class="relay">CH1</text>
<text x="720" y="118" class="lbl">Cabin Lights</text>
<text x="950" y="118" class="note">existing (already wired)</text>
<!-- SW5 -->
<text x="466" y="135" class="sw">SW5</text>
<text x="520" y="135" class="pin">GPIO33</text>
<text x="600" y="135" class="relay">CH6</text>
<text x="720" y="135" class="lbl">Vent Fan</text>
<text x="950" y="135" class="note">existing (already wired)</text>
<line x1="460" y1="141" x2="1070" y2="141" stroke="#1e3a4a" stroke-width="1" stroke-dasharray="4,3"/>
<!-- SW6 -->
<text x="466" y="158" class="sw">SW6</text>
<text x="520" y="158" class="pin">GPIO5</text>
<text x="600" y="158" class="relay">CH5</text>
<text x="720" y="158" class="lbl">Water Pump</text>
<text x="950" y="158" class="note">new — add terminal block</text>
<!-- SW7 -->
<text x="466" y="175" class="sw">SW7</text>
<text x="520" y="175" class="pin">GPIO13</text>
<text x="600" y="175" class="relay">CH7</text>
<text x="720" y="175" class="lbl">Instruments</text>
<text x="950" y="175" class="note">new — add terminal block</text>
<!-- SW8 -->
<text x="466" y="192" class="sw">SW8</text>
<text x="520" y="192" class="pin">GPIO14</text>
<text x="600" y="192" class="relay">CH8</text>
<text x="720" y="192" class="lbl">Starlink Power</text>
<text x="950" y="192" class="note">new — add terminal block</text>
<line x1="460" y1="198" x2="1070" y2="198" stroke="#1e3a4a" stroke-width="1" stroke-dasharray="4,3"/>
<!-- SW9 -->
<text x="466" y="215" class="spare">SW9</text>
<text x="520" y="215" class="pin">GPIO16</text>
<text x="600" y="215" class="dim">—  spare</text>
<text x="720" y="215" class="lbl" fill="#475569">unassigned</text>
<text x="950" y="215" class="note">new — terminal only, no HTTP action yet</text>
<!-- SW10 -->
<text x="466" y="232" class="spare">SW10</text>
<text x="520" y="232" class="pin">GPIO17</text>
<text x="600" y="232" class="dim">—  spare</text>
<text x="720" y="232" class="lbl" fill="#475569">unassigned</text>
<text x="950" y="232" class="note">new — terminal only</text>
<!-- SW11 -->
<text x="466" y="249" class="spare">SW11</text>
<text x="520" y="249" class="pin">GPIO19</text>
<text x="600" y="249" class="dim">—  spare</text>
<text x="720" y="249" class="lbl" fill="#475569">unassigned</text>
<text x="950" y="249" class="note">new — terminal only</text>
<line x1="460" y1="255" x2="1070" y2="255" stroke="#1e3a4a" stroke-width="1"/>

<!-- Notes below table -->
<text x="466" y="272" class="note">SW4/SW5 already exist — add SW6–SW11 terminal blocks in same row to keep neat.</text>
<text x="466" y="283" class="note">SW9–SW11 spare inputs: ESPHome shows state but no HTTP POST fires — assign later.</text>
<text x="466" y="290" class="warn">⚠  GPIO5 and GPIO14 are ESP32 strapping pins — internal pull-ups keep them HIGH at boot (correct).</text>

<!-- ══════════════════════════════════════════════════════════════ -->
<!-- SECTION 3: Protoboard layout            x=20..1080  y=305..575 -->
<!-- ══════════════════════════════════════════════════════════════ -->
<rect x="20" y="305" width="1060" height="272" fill="#0d1116" stroke="#1e3a4a" stroke-width="1" rx="4"/>
<text x="550" y="323" text-anchor="middle" class="head">Protoboard Layout  —  Terminal Block Row</text>
<text x="550" y="337" text-anchor="middle" class="dim">Mount a single 16-position (or two 8-position) screw terminal strips in a row · one pair per switch</text>

<!-- ── GND rail (bottom of terminal area) ──────────────────── -->
<!-- Shared GND bus bar at y=520 -->
<rect x="36" y="516" width="1038" height="10" fill="#0a1520" stroke="#475569" stroke-width="1" rx="2"/>
<text x="550" y="525" text-anchor="middle" class="dim">GND  bus  (all T2 terminals connected to this rail)</text>

<!-- ── GPIO rail annotation (top) ──────────────────────────── -->
<text x="36" y="358" class="dim">GPIO wires run from ESP32 pin header to T1 of each switch pair</text>

<!-- ── 8 switch terminal pairs ──────────────────────────────── -->
<!-- x centers for 8 pairs evenly spaced across 1060px
     cols: 90, 213, 336, 459, 582, 705, 828, 951  (step=123px) -->

<!-- SW4 : x=90 ───────────────────────────────────────────── -->
<text x="90" y="375" text-anchor="middle" class="sw">SW4</text>
<!-- T1 (signal) -->
<rect x="62" y="380" width="32" height="36" fill="#0d2218" stroke="#22c55e" stroke-width="1.5" rx="2"/>
<line x1="71" y1="389" x2="85" y2="403" stroke="#22c55e" stroke-width="1.2"/>
<line x1="85" y1="389" x2="71" y2="403" stroke="#22c55e" stroke-width="1.2"/>
<!-- T2 (GND) -->
<rect x="94" y="380" width="32" height="36" fill="#131a24" stroke="#475569" stroke-width="1.5" rx="2"/>
<line x1="103" y1="389" x2="117" y2="403" stroke="#475569" stroke-width="1.2"/>
<line x1="117" y1="389" x2="103" y2="403" stroke="#475569" stroke-width="1.2"/>
<!-- Labels -->
<text x="78"  y="426" text-anchor="middle" class="pin">GPIO32</text>
<text x="110" y="426" text-anchor="middle" class="note">GND</text>
<text x="90"  y="439" text-anchor="middle" class="relay">CH1</text>
<text x="90"  y="451" text-anchor="middle" class="note" fill="#64748b">Cabin</text>
<text x="90"  y="461" text-anchor="middle" class="note" fill="#64748b">Lights</text>
<!-- GPIO trace line up -->
<line x1="78" y1="380" x2="78" y2="365" stroke="#22c55e" stroke-width="1.2" stroke-dasharray="3,2"/>
<!-- GND drop to bus -->
<line x1="110" y1="416" x2="110" y2="516" stroke="#475569" stroke-width="1.2" stroke-dasharray="3,2"/>

<!-- SW5 : x=213 ──────────────────────────────────────────── -->
<text x="213" y="375" text-anchor="middle" class="sw">SW5</text>
<rect x="185" y="380" width="32" height="36" fill="#0d2218" stroke="#22c55e" stroke-width="1.5" rx="2"/>
<line x1="194" y1="389" x2="208" y2="403" stroke="#22c55e" stroke-width="1.2"/>
<line x1="208" y1="389" x2="194" y2="403" stroke="#22c55e" stroke-width="1.2"/>
<rect x="217" y="380" width="32" height="36" fill="#131a24" stroke="#475569" stroke-width="1.5" rx="2"/>
<line x1="226" y1="389" x2="240" y2="403" stroke="#475569" stroke-width="1.2"/>
<line x1="240" y1="389" x2="226" y2="403" stroke="#475569" stroke-width="1.2"/>
<text x="201" y="426" text-anchor="middle" class="pin">GPIO33</text>
<text x="233" y="426" text-anchor="middle" class="note">GND</text>
<text x="213" y="439" text-anchor="middle" class="relay">CH6</text>
<text x="213" y="451" text-anchor="middle" class="note" fill="#64748b">Vent</text>
<text x="213" y="461" text-anchor="middle" class="note" fill="#64748b">Fan</text>
<line x1="201" y1="380" x2="201" y2="365" stroke="#22c55e" stroke-width="1.2" stroke-dasharray="3,2"/>
<line x1="233" y1="416" x2="233" y2="516" stroke="#475569" stroke-width="1.2" stroke-dasharray="3,2"/>

<!-- SW6 : x=336 ──────────────────────────────────────────── -->
<text x="336" y="375" text-anchor="middle" class="sw">SW6</text>
<rect x="308" y="380" width="32" height="36" fill="#0d2218" stroke="#22c55e" stroke-width="1.5" rx="2"/>
<line x1="317" y1="389" x2="331" y2="403" stroke="#22c55e" stroke-width="1.2"/>
<line x1="331" y1="389" x2="317" y2="403" stroke="#22c55e" stroke-width="1.2"/>
<rect x="340" y="380" width="32" height="36" fill="#131a24" stroke="#475569" stroke-width="1.5" rx="2"/>
<line x1="349" y1="389" x2="363" y2="403" stroke="#475569" stroke-width="1.2"/>
<line x1="363" y1="389" x2="349" y2="403" stroke="#475569" stroke-width="1.2"/>
<text x="324" y="426" text-anchor="middle" class="pin">GPIO5</text>
<text x="356" y="426" text-anchor="middle" class="note">GND</text>
<text x="336" y="439" text-anchor="middle" class="relay">CH5</text>
<text x="336" y="451" text-anchor="middle" class="note" fill="#64748b">Water</text>
<text x="336" y="461" text-anchor="middle" class="note" fill="#64748b">Pump</text>
<line x1="324" y1="380" x2="324" y2="365" stroke="#22c55e" stroke-width="1.2" stroke-dasharray="3,2"/>
<line x1="356" y1="416" x2="356" y2="516" stroke="#475569" stroke-width="1.2" stroke-dasharray="3,2"/>
<!-- NEW badge -->
<rect x="300" y="362" width="26" height="11" fill="#1a3a1a" stroke="#22c55e" stroke-width="0.8" rx="2"/>
<text x="313" y="371" text-anchor="middle" class="dim" fill="#22c55e">NEW</text>

<!-- SW7 : x=459 ──────────────────────────────────────────── -->
<text x="459" y="375" text-anchor="middle" class="sw">SW7</text>
<rect x="431" y="380" width="32" height="36" fill="#0d2218" stroke="#22c55e" stroke-width="1.5" rx="2"/>
<line x1="440" y1="389" x2="454" y2="403" stroke="#22c55e" stroke-width="1.2"/>
<line x1="454" y1="389" x2="440" y2="403" stroke="#22c55e" stroke-width="1.2"/>
<rect x="463" y="380" width="32" height="36" fill="#131a24" stroke="#475569" stroke-width="1.5" rx="2"/>
<line x1="472" y1="389" x2="486" y2="403" stroke="#475569" stroke-width="1.2"/>
<line x1="486" y1="389" x2="472" y2="403" stroke="#475569" stroke-width="1.2"/>
<text x="447" y="426" text-anchor="middle" class="pin">GPIO13</text>
<text x="479" y="426" text-anchor="middle" class="note">GND</text>
<text x="459" y="439" text-anchor="middle" class="relay">CH7</text>
<text x="459" y="451" text-anchor="middle" class="note" fill="#64748b">Instru-</text>
<text x="459" y="461" text-anchor="middle" class="note" fill="#64748b">ments</text>
<line x1="447" y1="380" x2="447" y2="365" stroke="#22c55e" stroke-width="1.2" stroke-dasharray="3,2"/>
<line x1="479" y1="416" x2="479" y2="516" stroke="#475569" stroke-width="1.2" stroke-dasharray="3,2"/>
<rect x="423" y="362" width="26" height="11" fill="#1a3a1a" stroke="#22c55e" stroke-width="0.8" rx="2"/>
<text x="436" y="371" text-anchor="middle" class="dim" fill="#22c55e">NEW</text>

<!-- SW8 : x=582 ──────────────────────────────────────────── -->
<text x="582" y="375" text-anchor="middle" class="sw">SW8</text>
<rect x="554" y="380" width="32" height="36" fill="#0d2218" stroke="#22c55e" stroke-width="1.5" rx="2"/>
<line x1="563" y1="389" x2="577" y2="403" stroke="#22c55e" stroke-width="1.2"/>
<line x1="577" y1="389" x2="563" y2="403" stroke="#22c55e" stroke-width="1.2"/>
<rect x="586" y="380" width="32" height="36" fill="#131a24" stroke="#475569" stroke-width="1.5" rx="2"/>
<line x1="595" y1="389" x2="609" y2="403" stroke="#475569" stroke-width="1.2"/>
<line x1="609" y1="389" x2="595" y2="403" stroke="#475569" stroke-width="1.2"/>
<text x="570" y="426" text-anchor="middle" class="pin">GPIO14</text>
<text x="602" y="426" text-anchor="middle" class="note">GND</text>
<text x="582" y="439" text-anchor="middle" class="relay">CH8</text>
<text x="582" y="451" text-anchor="middle" class="note" fill="#64748b">Starlink</text>
<text x="582" y="461" text-anchor="middle" class="note" fill="#64748b">Power</text>
<line x1="570" y1="380" x2="570" y2="365" stroke="#22c55e" stroke-width="1.2" stroke-dasharray="3,2"/>
<line x1="602" y1="416" x2="602" y2="516" stroke="#475569" stroke-width="1.2" stroke-dasharray="3,2"/>
<rect x="546" y="362" width="26" height="11" fill="#1a3a1a" stroke="#22c55e" stroke-width="0.8" rx="2"/>
<text x="559" y="371" text-anchor="middle" class="dim" fill="#22c55e">NEW</text>

<!-- SW9 : x=705  (spare) ──────────────────────────────────── -->
<text x="705" y="375" text-anchor="middle" class="spare">SW9</text>
<rect x="677" y="380" width="32" height="36" fill="#131a24" stroke="#475569" stroke-width="1" rx="2"/>
<line x1="686" y1="389" x2="700" y2="403" stroke="#475569" stroke-width="1"/>
<line x1="700" y1="389" x2="686" y2="403" stroke="#475569" stroke-width="1"/>
<rect x="709" y="380" width="32" height="36" fill="#131a24" stroke="#475569" stroke-width="1" rx="2"/>
<line x1="718" y1="389" x2="732" y2="403" stroke="#475569" stroke-width="1"/>
<line x1="732" y1="389" x2="718" y2="403" stroke="#475569" stroke-width="1"/>
<text x="693" y="426" text-anchor="middle" class="pin">GPIO16</text>
<text x="725" y="426" text-anchor="middle" class="note">GND</text>
<text x="705" y="439" text-anchor="middle" class="dim">spare</text>
<line x1="693" y1="380" x2="693" y2="365" stroke="#475569" stroke-width="1" stroke-dasharray="3,2"/>
<line x1="725" y1="416" x2="725" y2="516" stroke="#475569" stroke-width="1.2" stroke-dasharray="3,2"/>
<rect x="669" y="362" width="26" height="11" fill="#1a3a1a" stroke="#22c55e" stroke-width="0.8" rx="2"/>
<text x="682" y="371" text-anchor="middle" class="dim" fill="#22c55e">NEW</text>

<!-- SW10 : x=828  (spare) ─────────────────────────────────── -->
<text x="828" y="375" text-anchor="middle" class="spare">SW10</text>
<rect x="800" y="380" width="32" height="36" fill="#131a24" stroke="#475569" stroke-width="1" rx="2"/>
<line x1="809" y1="389" x2="823" y2="403" stroke="#475569" stroke-width="1"/>
<line x1="823" y1="389" x2="809" y2="403" stroke="#475569" stroke-width="1"/>
<rect x="832" y="380" width="32" height="36" fill="#131a24" stroke="#475569" stroke-width="1" rx="2"/>
<line x1="841" y1="389" x2="855" y2="403" stroke="#475569" stroke-width="1"/>
<line x1="855" y1="389" x2="841" y2="403" stroke="#475569" stroke-width="1"/>
<text x="816" y="426" text-anchor="middle" class="pin">GPIO17</text>
<text x="848" y="426" text-anchor="middle" class="note">GND</text>
<text x="828" y="439" text-anchor="middle" class="dim">spare</text>
<line x1="816" y1="380" x2="816" y2="365" stroke="#475569" stroke-width="1" stroke-dasharray="3,2"/>
<line x1="848" y1="416" x2="848" y2="516" stroke="#475569" stroke-width="1.2" stroke-dasharray="3,2"/>
<rect x="792" y="362" width="26" height="11" fill="#1a3a1a" stroke="#22c55e" stroke-width="0.8" rx="2"/>
<text x="805" y="371" text-anchor="middle" class="dim" fill="#22c55e">NEW</text>

<!-- SW11 : x=951  (spare) ─────────────────────────────────── -->
<text x="951" y="375" text-anchor="middle" class="spare">SW11</text>
<rect x="923" y="380" width="32" height="36" fill="#131a24" stroke="#475569" stroke-width="1" rx="2"/>
<line x1="932" y1="389" x2="946" y2="403" stroke="#475569" stroke-width="1"/>
<line x1="946" y1="389" x2="932" y2="403" stroke="#475569" stroke-width="1"/>
<rect x="955" y="380" width="32" height="36" fill="#131a24" stroke="#475569" stroke-width="1" rx="2"/>
<line x1="964" y1="389" x2="978" y2="403" stroke="#475569" stroke-width="1"/>
<line x1="978" y1="389" x2="964" y2="403" stroke="#475569" stroke-width="1"/>
<text x="939" y="426" text-anchor="middle" class="pin">GPIO19</text>
<text x="971" y="426" text-anchor="middle" class="note">GND</text>
<text x="951" y="439" text-anchor="middle" class="dim">spare</text>
<line x1="939" y1="380" x2="939" y2="365" stroke="#475569" stroke-width="1" stroke-dasharray="3,2"/>
<line x1="971" y1="416" x2="971" y2="516" stroke="#475569" stroke-width="1.2" stroke-dasharray="3,2"/>
<rect x="915" y="362" width="26" height="11" fill="#1a3a1a" stroke="#22c55e" stroke-width="0.8" rx="2"/>
<text x="928" y="371" text-anchor="middle" class="dim" fill="#22c55e">NEW</text>

<!-- Boat wire labels on right edge -->
<text x="1008" y="398" class="note">← to boat</text>
<text x="1008" y="408" class="note">   panel</text>
<text x="1008" y="418" class="note">   switches</text>
<line x1="987" y1="398" x2="1003" y2="398" stroke="#94a3b8" stroke-width="1" stroke-dasharray="3,2"/>
<line x1="987" y1="406" x2="1003" y2="406" stroke="#94a3b8" stroke-width="1" stroke-dasharray="3,2"/>

<!-- ESP32 connection labels on left edge -->
<text x="36" y="432" class="note">↑ GPIO</text>
<text x="36" y="442" class="note">   wires</text>
<text x="36" y="452" class="note">   to ESP32</text>
<text x="36" y="462" class="note">   pin header</text>

<!-- GND bus connection to ESP32 GND -->
<line x1="36" y1="521" x2="36" y2="555" stroke="#475569" stroke-width="1.5"/>
<text x="42" y="548" class="note">→ ESP32 GND pin</text>

<!-- Protoboard hole grid (decorative, background context) -->
<g fill="#141e2a" stroke="none" opacity="0.6">
<!-- Row of holes at y=347 -->
<circle cx="62" cy="347" r="2.5"/><circle cx="94" cy="347" r="2.5"/><circle cx="126" cy="347" r="2.5"/>
<circle cx="185" cy="347" r="2.5"/><circle cx="217" cy="347" r="2.5"/><circle cx="249" cy="347" r="2.5"/>
<circle cx="308" cy="347" r="2.5"/><circle cx="340" cy="347" r="2.5"/><circle cx="372" cy="347" r="2.5"/>
<circle cx="431" cy="347" r="2.5"/><circle cx="463" cy="347" r="2.5"/><circle cx="495" cy="347" r="2.5"/>
<circle cx="554" cy="347" r="2.5"/><circle cx="586" cy="347" r="2.5"/><circle cx="618" cy="347" r="2.5"/>
<circle cx="677" cy="347" r="2.5"/><circle cx="709" cy="347" r="2.5"/><circle cx="741" cy="347" r="2.5"/>
<circle cx="800" cy="347" r="2.5"/><circle cx="832" cy="347" r="2.5"/><circle cx="864" cy="347" r="2.5"/>
<circle cx="923" cy="347" r="2.5"/><circle cx="955" cy="347" r="2.5"/><circle cx="987" cy="347" r="2.5"/>
<!-- Row at y=470 -->
<circle cx="62" cy="470" r="2.5"/><circle cx="94" cy="470" r="2.5"/><circle cx="126" cy="470" r="2.5"/>
<circle cx="185" cy="470" r="2.5"/><circle cx="217" cy="470" r="2.5"/><circle cx="249" cy="470" r="2.5"/>
<circle cx="308" cy="470" r="2.5"/><circle cx="340" cy="470" r="2.5"/><circle cx="372" cy="470" r="2.5"/>
<circle cx="431" cy="470" r="2.5"/><circle cx="463" cy="470" r="2.5"/><circle cx="495" cy="470" r="2.5"/>
<circle cx="554" cy="470" r="2.5"/><circle cx="586" cy="470" r="2.5"/><circle cx="618" cy="470" r="2.5"/>
<circle cx="677" cy="470" r="2.5"/><circle cx="709" cy="470" r="2.5"/><circle cx="741" cy="470" r="2.5"/>
<circle cx="800" cy="470" r="2.5"/><circle cx="832" cy="470" r="2.5"/><circle cx="864" cy="470" r="2.5"/>
<circle cx="923" cy="470" r="2.5"/><circle cx="955" cy="470" r="2.5"/><circle cx="987" cy="470" r="2.5"/>
<!-- Row at y=502 -->
<circle cx="62" cy="502" r="2.5"/><circle cx="94" cy="502" r="2.5"/><circle cx="126" cy="502" r="2.5"/>
<circle cx="185" cy="502" r="2.5"/><circle cx="217" cy="502" r="2.5"/><circle cx="249" cy="502" r="2.5"/>
<circle cx="308" cy="502" r="2.5"/><circle cx="340" cy="502" r="2.5"/><circle cx="372" cy="502" r="2.5"/>
<circle cx="431" cy="502" r="2.5"/><circle cx="463" cy="502" r="2.5"/><circle cx="495" cy="502" r="2.5"/>
<circle cx="554" cy="502" r="2.5"/><circle cx="586" cy="502" r="2.5"/><circle cx="618" cy="502" r="2.5"/>
<circle cx="677" cy="502" r="2.5"/><circle cx="709" cy="502" r="2.5"/><circle cx="741" cy="502" r="2.5"/>
<circle cx="800" cy="502" r="2.5"/><circle cx="832" cy="502" r="2.5"/><circle cx="864" cy="502" r="2.5"/>
<circle cx="923" cy="502" r="2.5"/><circle cx="955" cy="502" r="2.5"/><circle cx="987" cy="502" r="2.5"/>
</g>

<!-- ══════════════════════════════════════════════════════════════ -->
<!-- SECTION 4: Shopping list / notes    x=20..1080  y=583..688   -->
<!-- ══════════════════════════════════════════════════════════════ -->
<rect x="20" y="583" width="1060" height="107" fill="#0d1116" stroke="#1e3a4a" stroke-width="1" rx="4"/>
<text x="550" y="600" text-anchor="middle" class="head">Shopping List  /  Wiring Notes</text>

<text x="36"  y="618" class="val">6×</text>
<text x="60"  y="618" class="lbl">2-pin screw terminal block  (3.5 mm pitch)</text>
<text x="400" y="618" class="note">one pair per new switch (SW6–SW11)  ·  or use one 12-pin strip cut to length</text>

<text x="36"  y="634" class="val">1×</text>
<text x="60"  y="634" class="lbl">22 AWG hookup wire, various colours</text>
<text x="400" y="634" class="note">signal wires (green/yellow) + GND wires (black) from terminals to switch panel</text>

<text x="36"  y="650" class="val">—</text>
<text x="60"  y="650" class="lbl">No resistors needed for switch inputs</text>
<text x="400" y="650" class="note">ESP32 internal pull-ups are enabled in ESPHome (mode: input, pullup: true)</text>

<line x1="30" y1="658" x2="1070" y2="658" stroke="#1e3a4a" stroke-width="1"/>
<text x="36" y="671" class="warn">⚠  All T2 terminals share a single GND — daisy-chain all T2s together on the GND rail or use a shared bus bar.</text>
<text x="36" y="683" class="warn">⚠  SW4/SW5 already wired to GPIO32/33 — match the same T1=signal / T2=GND convention when adding new terminals.</text>

</svg>
